<svg width="23" height="25" viewBox="0 0 23 25" fill="none" xmlns="http://www.w3.org/2000/svg">
<g clip-path="url(#clip0_41_98)" filter="url(#filter0_d_41_98)">
<path fill-rule="evenodd" clip-rule="evenodd" d="M9.35869 0.98584C9.35869 0.853232 9.41137 0.726055 9.50514 0.632286C9.5989 0.538518 9.72608 0.48584 9.85869 0.48584H13.8587C13.9913 0.48584 14.1185 0.538518 14.2122 0.632286C14.306 0.726055 14.3587 0.853232 14.3587 0.98584C14.3587 1.11845 14.306 1.24563 14.2122 1.33939C14.1185 1.43316 13.9913 1.48584 13.8587 1.48584H12.8587V2.55584C14.6076 2.81212 16.195 3.7204 17.3021 5.0984C18.4092 6.47639 18.9541 8.22212 18.8275 9.98522C18.701 11.7483 17.9122 13.3983 16.6197 14.604C15.3271 15.8098 13.6263 16.482 11.8587 16.4858C10.0868 16.489 8.37956 15.8201 7.08145 14.614C5.78334 13.408 4.99092 11.7545 4.86405 9.98707C4.73717 8.21969 5.28528 6.46996 6.3978 5.09082C7.51033 3.71169 9.10448 2.80578 10.8587 2.55584V1.48584H9.85869C9.72608 1.48584 9.5989 1.43316 9.50514 1.33939C9.41137 1.24563 9.35869 1.11845 9.35869 0.98584ZM12.3587 5.48584C12.3587 5.35323 12.306 5.22605 12.2122 5.13229C12.1185 5.03852 11.9913 4.98584 11.8587 4.98584C11.7261 4.98584 11.5989 5.03852 11.5051 5.13229C11.4114 5.22605 11.3587 5.35323 11.3587 5.48584V8.98584H8.35869C8.22608 8.98584 8.0989 9.03852 8.00514 9.13229C7.91137 9.22605 7.85869 9.35323 7.85869 9.48584C7.85869 9.61845 7.91137 9.74563 8.00514 9.83939C8.0989 9.93316 8.22608 9.98584 8.35869 9.98584H11.8587C11.9913 9.98584 12.1185 9.93316 12.2122 9.83939C12.306 9.74563 12.3587 9.61845 12.3587 9.48584V5.48584Z" fill="#FF0000"/>
</g>
<defs>
<filter id="filter0_d_41_98" x="-0.141357" y="0.48584" width="24" height="24" filterUnits="userSpaceOnUse" color-interpolation-filters="sRGB">
<feFlood flood-opacity="0" result="BackgroundImageFix"/>
<feColorMatrix in="SourceAlpha" type="matrix" values="0 0 0 0 0 0 0 0 0 0 0 0 0 0 0 0 0 0 127 0" result="hardAlpha"/>
<feOffset dy="4"/>
<feGaussianBlur stdDeviation="2"/>
<feColorMatrix type="matrix" values="0 0 0 0 0 0 0 0 0 0 0 0 0 0 0 0 0 0 0.25 0"/>
<feBlend mode="normal" in2="BackgroundImageFix" result="effect1_dropShadow_41_98"/>
<feBlend mode="normal" in="SourceGraphic" in2="effect1_dropShadow_41_98" result="shape"/>
</filter>
<clipPath id="clip0_41_98">
<rect width="16" height="16" fill="white" transform="translate(3.85864 0.48584)"/>
</clipPath>
</defs>
</svg>
