<svg width="69" height="66" viewBox="0 0 69 66" fill="none" xmlns="http://www.w3.org/2000/svg">
<g clip-path="url(#clip0_41_75)" filter="url(#filter0_d_41_75)">
<path d="M64.6334 31.3432C63.9735 30.1702 62.4339 29.7303 61.1875 30.4634L52.8294 35.3023L50.7032 36.5487V48.1327L52.6828 49.3057C52.7561 49.3057 52.7561 49.379 52.8294 49.379L61.0409 54.1446C61.4074 54.4379 61.9207 54.5845 62.4339 54.5845C63.8269 54.5845 64.9266 53.4848 64.9266 52.0917V42.2674L64.9999 32.5896C64.9999 32.1497 64.9266 31.7098 64.6334 31.3432Z" fill="#A7A9AC"/>
<path d="M15.8047 27.604C22.3299 27.604 27.6086 22.3252 27.6086 15.8C27.6086 9.27488 22.3299 3.99609 15.8047 3.99609C9.27953 3.99609 4.00074 9.27488 4.00074 15.8C3.92743 22.3252 9.27953 27.604 15.8047 27.604ZM15.8047 10.9612C18.5174 10.9612 20.6436 13.1606 20.6436 15.8C20.6436 18.5127 18.4441 20.6389 15.8047 20.6389C13.1653 20.6389 10.9658 18.4394 10.9658 15.8C10.8925 13.0873 13.092 10.9612 15.8047 10.9612Z" fill="#A7A9AC"/>
<path d="M45.7178 28.2639C43.8116 29.217 41.6854 29.8036 39.4126 29.8036C36.6266 29.8036 33.9872 28.9971 31.7877 27.5308H23.4296C21.2301 28.9971 18.5907 29.8036 15.8047 29.8036C13.5319 29.8036 11.4057 29.2904 9.49948 28.2639C7.8132 29.217 6.64014 31.1233 6.64014 33.1761V51.0653C6.64014 54.3646 9.35284 57.004 12.5788 57.004H42.7118C46.0111 57.004 48.6505 54.2913 48.6505 51.0653V33.1761C48.5771 31.1233 47.4041 29.217 45.7178 28.2639Z" fill="#A7A9AC"/>
<path d="M39.4126 27.604C45.9378 27.604 51.2165 22.3252 51.2165 15.8C51.2165 9.27488 45.9378 3.99609 39.4126 3.99609C32.8874 3.99609 27.6086 9.27488 27.6086 15.8C27.6086 22.3252 32.8874 27.604 39.4126 27.604ZM39.4126 10.9612C42.1253 10.9612 44.2515 13.1606 44.2515 15.8C44.2515 18.5127 42.052 20.6389 39.4126 20.6389C36.7732 20.6389 34.5737 18.4394 34.5737 15.8C34.5737 13.0873 36.6999 10.9612 39.4126 10.9612Z" fill="#A7A9AC"/>
</g>
<defs>
<filter id="filter0_d_41_75" x="0" y="0" width="69" height="69" filterUnits="userSpaceOnUse" color-interpolation-filters="sRGB">
<feFlood flood-opacity="0" result="BackgroundImageFix"/>
<feColorMatrix in="SourceAlpha" type="matrix" values="0 0 0 0 0 0 0 0 0 0 0 0 0 0 0 0 0 0 127 0" result="hardAlpha"/>
<feOffset dy="4"/>
<feGaussianBlur stdDeviation="2"/>
<feColorMatrix type="matrix" values="0 0 0 0 0 0 0 0 0 0 0 0 0 0 0 0 0 0 0.25 0"/>
<feBlend mode="normal" in2="BackgroundImageFix" result="effect1_dropShadow_41_75"/>
<feBlend mode="normal" in="SourceGraphic" in2="effect1_dropShadow_41_75" result="shape"/>
</filter>
<clipPath id="clip0_41_75">
<rect width="61" height="61" fill="white" transform="translate(4)"/>
</clipPath>
</defs>
</svg>
